<svg xmlns="http://www.w3.org/2000/svg" width="145.68mm" height="75.97mm" viewBox="0 0 412.96 215.35"><defs><style>.cls-1{fill:#fff;}</style></defs><title>bstn_logo</title><g id="Ebene_2" data-name="Ebene 2"><g id="Ebene_1-2" data-name="Ebene 1"><rect class="cls-1" x="89.2" y="61.98" width="14.59" height="36.24"/><path class="cls-1" d="M0,0V215.35H413V0ZM117.41,96.53a17,17,0,0,1-.72,4.12,9.6,9.6,0,0,1-2.54,4.1c1.66,1.35,3,3.76,3.26,8v43.52c0,4.32-1.4,7.45-4.18,9.32a9.78,9.78,0,0,1-5.37,1.58H75.6V48.13h32a9.09,9.09,0,0,1,7.1,3.16A11.31,11.31,0,0,1,117.41,59ZM190.21,75l-13.6,0V62H162.52v20.9c1.11,1.74,6.56,10.07,24.62,37.51a18,18,0,0,1,3.07,9.88v26a11.53,11.53,0,0,1-2.62,7.72,9,9,0,0,1-7.15,3.18H158.81a9.22,9.22,0,0,1-7.12-3.15,11.18,11.18,0,0,1-2.78-7.75V140.53l13.61-.13v13h14.09V129.19C175.19,127,167,114.44,152.28,91.9a18.2,18.2,0,0,1-3.37-10.16V59a11.31,11.31,0,0,1,2.71-7.74,9,9,0,0,1,7.07-3.16h21.63a9.22,9.22,0,0,1,7.12,3.16,11,11,0,0,1,2.77,7.6Zm75.36-13H250V167.22H236.4V62H220.7V48.13h44.87Zm71.79,105.24H327.09L307.24,97.67v69.55H294V48.13H304.8l19.45,68v-68h13.11Z"/><rect class="cls-1" x="89.2" y="112.07" width="14.59" height="41.31"/></g></g></svg>