<?xml version="1.0" encoding="UTF-8"?>
<svg id="Layer_1" data-name="Layer 1" xmlns="http://www.w3.org/2000/svg" viewBox="0 0 335.41 335.49">
  <defs>
    <style>
      .cls-1 {
        fill: #fff;
      }
    </style>
  </defs>
  <path class="cls-1" d="M151.64,168.02c-2.17-1.85-3.38-2.74-4.44-3.8C99.91,116.94,52.65,69.62,5.33,22.36,1.8,18.83-.19,14.92,.95,9.95,2.92,1.3,13.32-2.14,20.21,3.5c1.06,.87,1.98,1.9,2.95,2.87,47.03,47.02,94.06,94.04,141.08,141.07,1.05,1.05,1.93,2.26,3.05,3.59,1.53-1.45,2.61-2.43,3.64-3.46C218.48,100,266.03,52.44,313.53,4.83c3.5-3.51,7.34-5.64,12.35-4.55,8.7,1.89,12.33,12.16,6.82,19.17-.92,1.17-2.04,2.19-3.1,3.25-47.19,47.22-94.37,94.43-141.58,141.63-1.05,1.05-2.36,1.83-3.77,2.91,1.59,1.67,2.57,2.75,3.6,3.79,47.46,47.47,94.96,94.91,142.33,142.47,2.25,2.26,4.13,5.41,4.94,8.47,1.24,4.69-1.6,9.59-5.8,11.96-4.26,2.41-9.48,2.03-13.34-1.06-1.16-.93-2.18-2.04-3.24-3.1-47.21-47.2-94.41-94.39-141.59-141.61-1.05-1.05-1.85-2.34-2.77-3.52-.54-.18-1.08-.35-1.62-.53-.77,1.29-1.32,2.79-2.35,3.82-47.51,47.59-95.08,95.14-142.6,142.72-3.81,3.81-7.97,5.97-13.42,4.24-8.07-2.57-11.01-12.19-5.73-18.82,.93-1.17,2.05-2.18,3.11-3.24,47.27-47.3,94.55-94.61,141.84-141.88,.96-.96,2.21-1.61,4.03-2.92Z"/>
</svg>