<svg id="Ebene_1" data-name="Ebene 1" xmlns="http://www.w3.org/2000/svg" viewBox="0 0 120 120"><defs><style>.cls-1{fill:#ed0000;}.cls-2{fill:#fff;}.cls-3{fill:#001f9f;}.cls-4{fill:#b0b0b0;}</style></defs><g id="netherlands"><g id="colors"><polygon class="cls-1" points="119 40 1 40 1 6.17 3.15 3.06 6.39 1 113.08 1 116.68 3.11 119 6.37 119 40"/><rect class="cls-2" x="1" y="40" width="118" height="40"/><polygon class="cls-3" points="116.85 116.8 113.74 119 6.53 119 3 116.65 1 113.67 1 80 119 80 119 113.95 116.85 116.8"/></g><path id="outline" class="cls-4" d="M10,119.5V119a9,9,0,0,1-9-9V10a9,9,0,0,1,9-9H110a9,9,0,0,1,9,9V110a9,9,0,0,1-9,9H10v1H110a10,10,0,0,0,10-10V10A10,10,0,0,0,110,0H10A10,10,0,0,0,0,10V110a10,10,0,0,0,10,10Z"/></g></svg>